<svg width="24" height="24" viewBox="0 0 24 24" fill="none" xmlns="http://www.w3.org/2000/svg">
<g clip-path="url(#clip0_1352_2942)">
<path d="M17.35 6.5V15.46C17.35 16.26 17.03 17.02 16.47 17.58C15.91 18.14 15.14 18.46 14.35 18.46H9.65997C8.85997 18.46 8.09998 18.14 7.53998 17.58C6.97998 17.02 6.65997 16.25 6.65997 15.46V6.5C6.65997 6.11 6.73001 5.72001 6.89001 5.35001C7.04001 4.99001 7.25998 4.65 7.53998 4.38C7.81998 4.1 8.15001 3.88001 8.51001 3.73001C8.87001 3.58001 9.26997 3.5 9.65997 3.5H14.35C15.15 3.5 15.91 3.82 16.47 4.38C17.03 4.94 17.35 5.7 17.35 6.5Z" stroke="black" stroke-width="1.5" stroke-miterlimit="10" stroke-linecap="round"/>
<path d="M10.88 18.6L11.99 19.04L15.24 20.28C15.61 20.42 16 20.49 16.39 20.48C16.78 20.48 17.17 20.38 17.53 20.22C17.89 20.06 18.21 19.83 18.49 19.54C18.76 19.25 18.97 18.92 19.11 18.55L20.79 14.18C21.08 13.44 21.06 12.62 20.75 11.89C20.43 11.16 19.84 10.59 19.11 10.3L17.38 9.64001" stroke="black" stroke-width="1.5" stroke-miterlimit="10" stroke-linecap="round"/>
<path d="M13.12 18.62L12.01 19.06L8.75002 20.3C8.38002 20.44 7.98999 20.51 7.59999 20.5C7.20999 20.5 6.82004 20.4 6.46004 20.24C6.10004 20.08 5.78002 19.85 5.50002 19.56C5.23002 19.27 5.02002 18.94 4.88002 18.57L3.20003 14.2C2.92003 13.46 2.94003 12.63 3.26003 11.91C3.58003 11.18 4.18 10.62 4.92 10.33L6.62001 9.67999" stroke="black" stroke-width="1.5" stroke-miterlimit="10" stroke-linecap="round"/>
</g>
<defs>
<clipPath id="clip0_1352_2942">
<rect width="24" height="24" fill="white"/>
</clipPath>
</defs>
</svg>
