<svg width="54" height="26" viewBox="0 0 54 26" fill="none" xmlns="http://www.w3.org/2000/svg">
<path d="M4.58354 14.1238C3.33791 14.1238 2.39395 13.8416 1.75167 13.2772C1.11912 12.7225 0.802849 11.8418 0.802849 10.6351C0.802849 10.2555 0.87097 9.27752 1.00721 7.70102L1.051 7.10253L2.75888 7.2485C2.66157 8.82501 2.61291 9.78356 2.61291 10.1242C2.61291 10.5329 2.78808 10.8102 3.13841 10.9562C3.49848 11.0924 4.03371 11.1606 4.74411 11.1606C5.44478 11.1606 6.12598 11.1168 6.78773 11.0292C7.4592 10.9513 7.96037 10.8492 8.29124 10.7227L8.27665 10.168C8.26692 9.89547 8.33504 9.68625 8.48101 9.54027C8.63671 9.3943 8.82161 9.32132 9.0357 9.32132C9.33738 9.32132 9.60986 9.44296 9.85315 9.68625C10.0964 9.9198 10.2181 10.2409 10.2181 10.6497C10.2181 11.4476 9.95047 12.1045 9.41523 12.6203C8.88973 13.1458 8.19879 13.5253 7.34242 13.7589C6.49578 14.0022 5.57615 14.1238 4.58354 14.1238ZM8.59779 10.4015L6.30602 10.2117C5.54696 10.1534 5.00199 9.91007 4.67112 9.48188C4.34998 9.0537 4.18941 8.5136 4.18941 7.86159C4.18941 7.17065 4.33539 6.41646 4.62733 5.59901C4.88035 4.88861 5.22582 4.33878 5.66374 3.94952C6.11139 3.56026 6.63689 3.36563 7.24024 3.36563C7.59058 3.36563 8.23772 3.5408 9.18168 3.89113L9.64879 4.0517L9.0649 6.12452C8.20853 5.97854 7.61977 5.90556 7.29863 5.90556C7.04561 5.90556 6.84612 5.94448 6.70014 6.02233C6.5639 6.10019 6.46172 6.23156 6.3936 6.41646C6.24763 6.81545 6.12598 7.18525 6.02867 7.52585L7.15266 7.65723C7.54192 7.69615 7.93604 7.73995 8.33504 7.7886C9.08436 7.89565 9.58553 8.21192 9.83855 8.73742C10.0916 9.26293 10.2181 9.90034 10.2181 10.6497L8.59779 10.4015ZM13.7283 11.073C13.0276 11.073 12.4388 10.9124 11.962 10.5913C11.4852 10.2604 11.2467 9.70571 11.2467 8.92719C11.2467 8.84934 11.2565 8.70336 11.2759 8.48927L11.8014 3.77436H13.4217C14.5117 3.77436 15.3437 4.02738 15.9179 4.53341C16.5017 5.02972 16.8861 5.70119 17.071 6.54784C17.2657 7.39448 17.3581 8.45521 17.3484 9.73004L15.5237 10.4599C15.5237 9.28239 15.4897 8.44548 15.4215 7.94917C15.3534 7.44313 15.1783 7.07334 14.896 6.83978C14.6138 6.59649 14.137 6.47485 13.4655 6.47485H13.3049L13.1444 8.19733C13.3098 8.20706 13.6164 8.21192 14.064 8.21192C14.8814 8.19246 15.4653 8.173 15.8157 8.15353L16.8959 8.12434V10.7227C15.7086 10.9562 14.6528 11.073 13.7283 11.073ZM11.4219 12.0218C12.4632 11.9245 13.3293 11.8077 14.0202 11.6715C14.7111 11.5352 15.2123 11.3941 15.5237 11.2482V9.74464C15.5237 9.5792 15.5821 9.4089 15.6989 9.23373C15.8254 9.05856 15.9811 8.91259 16.166 8.79581C16.3509 8.67904 16.5261 8.62065 16.6915 8.62065C16.8861 8.62065 17.0418 8.7131 17.1586 8.89799C17.2851 9.07316 17.3484 9.35051 17.3484 9.73004C17.3484 10.6448 17.2511 11.399 17.0564 11.9926C16.8618 12.596 16.3509 13.1458 15.5237 13.6421C14.7063 14.1481 13.4217 14.5131 11.6701 14.7369L11.4219 12.0218ZM22.7226 10.4599C22.7226 9.28239 22.6885 8.44548 22.6204 7.94917C22.5523 7.44313 22.3771 7.07334 22.0949 6.83978C21.8127 6.59649 21.3358 6.47485 20.6644 6.47485H20.5038L20.3432 8.19733C20.5087 8.20706 20.8152 8.21192 21.2628 8.21192C22.0803 8.19246 22.6642 8.173 23.0145 8.15353L24.0947 8.12434V10.7227C22.9075 10.9562 21.8516 11.073 20.9271 11.073C20.2264 11.073 19.6377 10.9124 19.1608 10.5913C18.684 10.2604 18.4456 9.70571 18.4456 8.92719C18.4456 8.84934 18.4553 8.70336 18.4748 8.48927L19.0003 3.77436H20.6206C21.7105 3.77436 22.5425 4.02738 23.1167 4.53341C23.7006 5.02972 24.085 5.70119 24.2699 6.54784C24.4645 7.39448 24.557 8.45521 24.5472 9.73004L22.7226 10.4599ZM18.6207 12.0218C19.662 11.9245 20.5281 11.8077 21.2191 11.6715C21.91 11.5352 22.4112 11.3941 22.7226 11.2482V9.74464C22.7226 9.5792 22.781 9.4089 22.8977 9.23373C23.0243 9.05856 23.18 8.91259 23.3649 8.79581C23.5498 8.67904 23.7249 8.62065 23.8904 8.62065C24.085 8.62065 24.2407 8.7131 24.3575 8.89799C24.484 9.07316 24.5472 9.35051 24.5472 9.73004C24.5472 10.6448 24.4499 11.399 24.2553 11.9926C24.0607 12.596 23.5498 13.1458 22.7226 13.6421C21.9051 14.1481 20.6206 14.5131 18.8689 14.7369L18.6207 12.0218ZM23.3649 8.03676H25.4085L25.5544 8.18273V10.854L25.4085 11H23.3649V8.03676ZM30.3511 11.0438C30.0689 11.0438 29.6942 11 29.2271 10.9124C28.7698 10.8248 28.3124 10.6886 27.855 10.5037C27.3976 10.3188 27.0375 10.095 26.7748 9.83222C26.6872 9.74464 26.6434 9.61813 26.6434 9.45269C26.6434 9.24833 26.7018 9.00504 26.8186 8.72283C26.9354 8.44061 27.0619 8.19246 27.1981 7.97837C27.3344 7.76427 27.4219 7.66209 27.4609 7.67182C27.8404 7.8178 28.3075 7.94917 28.8622 8.06595C29.4266 8.18273 30.0203 8.27518 30.6431 8.3433V6.48945H29.3731C29.1396 6.48945 28.979 6.52837 28.8914 6.60622C28.8038 6.67435 28.7357 6.81545 28.687 7.02955L28.3367 8.60605C28.1615 9.40403 27.8015 10.0025 27.2565 10.4015C26.7213 10.8005 26.1082 11 25.4173 11H25.4027V8.03676H25.461H26.6142C26.8283 6.98575 26.9743 6.30941 27.0521 6.00774C27.2176 5.27787 27.563 4.72804 28.0885 4.35825C28.6238 3.98845 29.2661 3.80355 30.0154 3.80355H32.4677V8.82501C32.4677 9.5938 32.2682 10.1582 31.8692 10.5183C31.48 10.8686 30.9739 11.0438 30.3511 11.0438Z" fill="white"/>
<path d="M37.9186 10.4599C37.9186 9.28239 37.8845 8.44548 37.8164 7.94917C37.7482 7.44313 37.5731 7.07334 37.2909 6.83978C37.0087 6.59649 36.5318 6.47485 35.8603 6.47485H35.6998L35.5392 8.19733C35.7046 8.20706 36.0112 8.21192 36.4588 8.21192C37.2763 8.19246 37.8602 8.173 38.2105 8.15353L39.2907 8.12434V10.7227C38.1034 10.9562 37.0476 11.073 36.1231 11.073C35.4224 11.073 34.8337 10.9124 34.3568 10.5913C33.88 10.2604 33.6416 9.70571 33.6416 8.92719C33.6416 8.84934 33.6513 8.70336 33.6707 8.48927L34.1962 3.77436H35.8165C36.9065 3.77436 37.7385 4.02738 38.3127 4.53341C38.8966 5.02972 39.281 5.70119 39.4659 6.54784C39.6605 7.39448 39.7529 8.45521 39.7432 9.73004L37.9186 10.4599ZM33.8167 12.0218C34.858 11.9245 35.7241 11.8077 36.415 11.6715C37.106 11.5352 37.6071 11.3941 37.9186 11.2482V9.74464C37.9186 9.5792 37.9769 9.4089 38.0937 9.23373C38.2202 9.05856 38.3759 8.91259 38.5608 8.79581C38.7457 8.67904 38.9209 8.62065 39.0863 8.62065C39.281 8.62065 39.4367 8.7131 39.5534 8.89799C39.68 9.07316 39.7432 9.35051 39.7432 9.73004C39.7432 10.6448 39.6459 11.399 39.4513 11.9926C39.2566 12.596 38.7457 13.1458 37.9186 13.6421C37.1011 14.1481 35.8165 14.5131 34.0649 14.7369L33.8167 12.0218ZM38.5608 8.03676H40.6044L40.7504 8.18273V10.854L40.6044 11H38.5608V8.03676ZM43.124 8.03676L42.9634 4.51882L45.153 4.41664V7.86159C45.153 8.72769 44.9437 9.38944 44.5253 9.84682C44.1068 10.3042 43.5716 10.6107 42.9196 10.7664C42.2676 10.9221 41.4939 11 40.5986 11V8.03676H43.124ZM43.0948 12.1824V14.1676H40.584V12.1824H43.0948ZM44.8756 12.1824V14.1676H42.3649V12.1824H44.8756ZM46.4603 0.957085L48.6207 0.781918V11L46.6355 11.1168L46.4603 0.957085ZM47.2292 12.0218C47.9493 11.8661 48.5624 11.6861 49.0685 11.4817C49.5745 11.2773 49.954 11.0827 50.207 10.8978C50.4601 10.7032 50.5914 10.5475 50.6012 10.4307L50.6158 9.81762C50.6158 9.63272 50.6936 9.41376 50.8493 9.16075C51.005 8.90773 51.1851 8.68877 51.3894 8.50387C51.6035 8.31897 51.7933 8.22652 51.9587 8.22652C52.2799 8.22652 52.4404 8.55253 52.4404 9.20454C52.4404 9.99279 52.3528 10.7227 52.1777 11.3941C52.0025 12.0656 51.55 12.7176 50.8201 13.3502C50.1 13.9924 49.0052 14.4498 47.5357 14.7223L47.2292 12.0218ZM50.1195 4.79616L52.2653 4.621C52.382 6.723 52.4404 8.25085 52.4404 9.20454C52.4404 9.81762 52.3723 10.3285 52.2361 10.7372C52.0998 11.146 51.9247 11.4428 51.7106 11.6277C51.5062 11.8223 51.297 11.9196 51.0829 11.9196C50.9174 11.9196 50.7763 11.8612 50.6596 11.7445C50.5525 11.6374 50.4941 11.4866 50.4844 11.2919L50.1195 4.79616Z" fill="#FF3257"/>
<path d="M2.74558 23.192V17.7164H4.86593C6.17076 17.7164 7.30472 18.0193 7.30472 19.2464C7.30472 20.1474 6.57464 20.3959 5.91445 20.4736V20.7843H6.71444C7.14161 20.7843 7.37462 21.0173 7.37462 21.4444V23.192H6.13193V21.2658H3.98828V23.192H2.74558ZM3.98828 20.1785H4.86593C5.60378 20.1785 6.06202 20.1785 6.06202 19.495C6.06202 18.8037 5.60378 18.8037 4.86593 18.8037H3.98828V20.1785ZM12.3847 23.192L11.8876 21.4367H9.66626L9.17695 23.192H7.91872L9.49539 17.7164H12.0584L13.6429 23.192H12.3847ZM9.96917 20.3493H11.5847L10.9323 18.027H10.6216L9.96917 20.3493ZM17.9173 18.8037H16.6746V22.1046H17.9173V23.192H14.1892V22.1046H15.4319V18.8037H14.1892V17.7164H17.9173V18.8037ZM18.1485 20.4503C18.1485 18.8581 19.2048 17.6387 20.9446 17.6387C22.6766 17.6387 23.7329 18.8581 23.7329 20.4503C23.7329 22.0503 22.6766 23.2697 20.9446 23.2697C19.2048 23.2697 18.1485 22.0503 18.1485 20.4503ZM19.3912 20.4503C19.3912 21.5066 19.9116 22.1823 20.9446 22.1823C21.9776 22.1823 22.4902 21.5066 22.4902 20.4503C22.4902 19.4018 21.9776 18.7261 20.9446 18.7261C19.9116 18.7261 19.3912 19.4018 19.3912 20.4503Z" fill="#FF3257"/>
<path d="M24.5898 23.192V17.7164H27.0364L27.8364 22.8813H28.147L28.947 17.7164H31.3936V23.192H30.1509V18.8037L30.3839 18.027H30.0732L29.1956 23.192H26.7878L25.9102 18.027H25.5995L25.8325 18.8037V23.192H24.5898ZM32.0135 20.4503C32.0135 18.8581 33.0698 17.6387 34.8096 17.6387C36.5416 17.6387 37.5979 18.8581 37.5979 20.4503C37.5979 22.0503 36.5416 23.2697 34.8096 23.2697C33.0698 23.2697 32.0135 22.0503 32.0135 20.4503ZM33.2562 20.4503C33.2562 21.5066 33.7766 22.1823 34.8096 22.1823C35.8426 22.1823 36.3552 21.5066 36.3552 20.4503C36.3552 19.4018 35.8426 18.7261 34.8096 18.7261C33.7766 18.7261 33.2562 19.4018 33.2562 20.4503ZM37.7573 17.7164H39.0156L40.4602 22.8813H40.7709L42.2233 17.7164H43.4815L41.8971 23.192H39.334L37.7573 17.7164ZM47.7559 18.8037H46.5133V22.1046H47.7559V23.192H44.0279V22.1046H45.2706V18.8037H44.0279V17.7164H47.7559V18.8037ZM48.4592 23.192V17.7164H52.3659V18.8037H49.7019V19.9066H51.9776V20.994H49.7019V22.1046H52.3659V23.192H48.4592Z" fill="white"/>
</svg>
