<svg width="60" height="60" viewBox="0 0 60 60" fill="none" xmlns="http://www.w3.org/2000/svg">
<rect width="60" height="60" rx="12" fill="#00BC78"/>
<path d="M16.0831 38V35.2687H18.2493V24.2492H16.0831V21.5178H22.8643C27.291 21.5178 29.6456 23.7782 29.6456 28.2049V31.3129C29.6456 35.7396 27.291 38 22.8643 38H16.0831ZM21.3574 35.1745H22.9114C25.4073 35.1745 26.5375 33.8088 26.5375 31.4071V28.1107C26.5375 25.709 25.4073 24.3433 22.9114 24.3433H21.3574V35.1745ZM38.4992 38.3296C34.4022 38.3296 31.8593 35.975 31.8593 31.7368V27.7811C31.8593 23.5428 34.4022 21.1882 38.4992 21.1882C42.5491 21.1882 44.8566 23.5428 44.8566 27.4043V27.5456H41.7957V27.3101C41.7957 25.3794 40.7126 23.9666 38.4992 23.9666C36.2859 23.9666 34.9673 25.4265 34.9673 27.734V31.7839C34.9673 34.0914 36.2859 35.5512 38.4992 35.5512C40.7126 35.5512 41.7957 34.1385 41.7957 32.2077V31.7839H44.8566V32.1135C44.8566 35.975 42.5491 38.3296 38.4992 38.3296Z" fill="white"/>
</svg>
