<svg width="60" height="60" viewBox="0 0 60 60" fill="none" xmlns="http://www.w3.org/2000/svg">
<rect width="60" height="60" rx="12" fill="#FFB800"/>
<path d="M17.4128 11.9888H20.8976V28H17.4128V11.9888ZM23.7131 11.9888H29.4584L32.3545 22.1371H32.4487L35.3448 11.9888H41.0665V28H37.6053V15.45H37.3227L34.3324 26.0457H30.4708L27.4805 15.45H27.1979V28H23.7131V11.9888Z" fill="black"/>
<path d="M17.3081 31.4148H22.933C24.4736 31.4148 25.6945 31.6764 26.5957 32.1996C27.5114 32.7229 28.1727 33.515 28.5796 34.576C28.9866 35.637 29.1901 37.0106 29.1901 38.6966C29.1901 40.368 28.9939 41.7561 28.6014 42.8607C28.2235 43.9508 27.5695 44.7865 26.6393 45.3679C25.7236 45.9493 24.4882 46.24 22.933 46.24H17.3081V31.4148ZM22.6932 43.3622C23.5652 43.3622 24.2338 43.1805 24.6989 42.8171C25.164 42.4392 25.4765 41.916 25.6364 41.2474C25.8108 40.5788 25.898 39.7285 25.898 38.6966C25.898 37.621 25.8035 36.7707 25.6146 36.1458C25.4402 35.5062 25.1204 35.0339 24.6553 34.7286C24.1902 34.4234 23.5362 34.2708 22.6932 34.2708H20.5348V43.3622H22.6932ZM31.2962 38.2169L37.0955 38.1951C38.8396 38.1951 40.155 38.4785 41.0416 39.0454C41.9427 39.6122 42.3933 40.6369 42.3933 42.1194C42.3933 43.5148 41.9791 44.554 41.1506 45.2371C40.3367 45.9057 39.0867 46.24 37.4007 46.24H31.2962V38.2169ZM36.9429 43.7982C37.7132 43.7982 38.2728 43.6456 38.6216 43.3403C38.9704 43.0351 39.1448 42.5337 39.1448 41.836C39.1448 41.1384 38.9486 40.6442 38.5562 40.3535C38.1783 40.0483 37.6332 39.8957 36.9211 39.8957H34.5011V43.7982H36.9429ZM31.2962 31.4148H37.2699C40.4384 31.4148 42.0227 32.7229 42.0227 35.3391C42.0227 36.4728 41.652 37.3812 40.9108 38.0643C40.1695 38.7474 39.014 39.089 37.4443 39.089H31.2962V31.4148ZM36.8556 37.5847C38.2074 37.5847 38.8832 36.9379 38.8832 35.6443C38.8832 34.4234 38.1856 33.813 36.7902 33.813H34.5011V37.5847H36.8556Z" fill="black"/>
</svg>
